# xmcd CD database file
#
# Track frame offsets:
#	150
#	13122
#	33332
#	50510
#	67785
#	89055
#	108917
#	123877
#	142542
#	163077
#	179767
#	198165
#	213202
#	231242
#	246217
#	262432
#	280247
#	295692
#	310447
#
# Disc length: 4387 seconds
#
# Revision: 73
# Processed by: cddbd v1.5.2PL0 Copyright (c) Steve Scherf et al.
# Submitted via: CDex 2.23
#
DISCID=17112113
DTITLE=Shania Twain - Up!
DYEAR=2002
DGENRE=Country
TTITLE0=Up!
TTITLE1=I'm Gonna Getcha Good!
TTITLE2=She's Not Just a Pretty Face
TTITLE3=Juanita
TTITLE4=Forever and for Always
TTITLE5=Ain't No Particular Way
TTITLE6=It Only Hurts When I'm Breathing
TTITLE7=Nah!
TTITLE8=(Wanna Get to Know You) That Good!
TTITLE9=C'est La Vie
TTITLE10=I'm Jealous
TTITLE11=Ka-Ching!
TTITLE12=Thank You Baby! (For Makin' Someday Come So Soon)
TTITLE13=Waiter! Bring Me Water!
TTITLE14=What a Way to Wanna Be!
TTITLE15=I Ain't Goin' Down
TTITLE16=I'm Not In the Mood (to Say No)!
TTITLE17=In My Car (I'll Be the Driver)
TTITLE18=When You Kiss Me
EXTD=Mercury YEAR: 2002
EXTT0=
EXTT1=
EXTT2=
EXTT3=
EXTT4=
EXTT5=
EXTT6=
EXTT7=
EXTT8=
EXTT9=
EXTT10=
EXTT11=
EXTT12=
EXTT13=
EXTT14=
EXTT15=
EXTT16=
EXTT17=
EXTT18=
PLAYORDER=
